# AST/ASF file generated using VICON BodyLanguage
# -----------------------------------------------
:version 1.10
:name VICON
:units
  mass 1.0
  length 0.45
  angle deg
:documentation
   .ast/.asf automatically generated from VICON data using
   VICON BodyBuilder and BodyLanguage model FoxedUp or BRILLIANT.MOD
:root
   order TX TY TZ RX RY RZ
   axis XYZ
   position 0 0 0  
   orientation 0 0 0 
:bonedata
  begin
     id 1 
     name lhipjoint
     direction 0.734343 -0.627749 0.258209 
     length 2.5437 
     axis 0 0 0  XYZ
  end
  begin
     id 2 
     name lfemur
     direction 0.34202 -0.939693 0  
     length 6.7391  
     axis 0 0 20  XYZ
    dof rx ry rz
    limits (-160.0 20.0)
           (-70.0 70.0)
           (-60.0 70.0)
  end
  begin
     id 3 
     name ltibia
     direction 0.34202 -0.939693 0   
     length 7.21536   
     axis 0 0 20   XYZ
    dof rx
    limits (-10.0 170.0)
  end
  begin
     id 4 
     name lfoot
     direction 0.0489572 -0.134509 0.989702   
     length 1.61313   
     axis -90 7.62852e-016 20   XYZ
    dof rx rz
    limits (-45.0 90.0)
           (-70.0 20.0)
  end
  begin
     id 5 
     name ltoes
     direction 1.53451e-011 -4.21692e-011 1   
     length 0.823104   
     axis -90 7.62852e-016 20   XYZ
    dof rx
    limits (-90.0 20.0)
  end
  begin
     id 6 
     name rhipjoint
     direction -0.746398 -0.615468 0.253157   
     length 2.59446  
     axis 0 0 0  XYZ 
  end
  begin
     id 7 
     name rfemur
     direction -0.34202 -0.939693 0   
     length 6.7075   
     axis 0 0 -20   XYZ
    dof rx ry rz
    limits (-160.0 20.0)
           (-70.0 70.0)
           (-70.0 60.0)
  end
  begin
     id 8 
     name rtibia
     direction -0.34202 -0.939693 0   
     length 7.27262   
     axis 0 0 -20   XYZ
    dof rx
    limits (-10.0 170.0)
 end
 begin
     id 9 
     name rfoot
     direction -0.0455203 -0.125066 0.991104   
     length 1.91095  
     axis -90 -7.62852e-016 -20   XYZ
    dof rx rz
    limits (-45.0 90.0)
           (-20.0 70.0)
  end
  begin
     id 10 
     name rtoes
     direction -1.53601e-011 -4.21913e-011 1   
     length 0.969037   
     axis -90 -7.62852e-016 -20   XYZ
    dof rx
    limits (-90.0 20.0)
  end
  begin
     id 11 
     name lowerback
     direction 0.0181546 0.999122 -0.0377542   
     length 1.99916   
     axis 0 0 0   XYZ
    dof rx ry rz
    limits (-20.0 45.0)
           (-30.0 30.0)
           (-30.0 30.0)
  end
  begin
     id 12 
     name upperback
     direction 0.0203486 0.99589 0.0882534   
     length 1.951   
     axis 0 0 0   XYZ
    dof rx ry rz
    limits (-20.0 45.0)
           (-30.0 30.0)
           (-30.0 30.0)
  end
  begin
     id 13 
     name thorax
     direction 0.0131685 0.994241 0.106355   
     length 1.97461   
     axis 0 0 0   XYZ
    dof rx ry rz
    limits (-20.0 45.0)
           (-30.0 30.0)
           (-30.0 30.0)
  end
  begin
     id 14 
     name lowerneck
     direction -0.0281395 0.999325 0.023617   
     length 1.7959   
     axis 0 0 0   XYZ
    dof rx ry rz
    limits (-20.0 45.0)
           (-30.0 30.0)
           (-30.0 30.0)
  end
  begin
     id 15 
     name upperneck
     direction 0.0288721 0.991984 -0.123019   
     length 1.79917   
     axis 0 0 0   XYZ
    dof rx ry rz
    limits (-20.0 45.0)
           (-30.0 30.0)
           (-30.0 30.0)
  end
  begin
     id 16
     name head
     direction 0.0133797 0.998944 -0.0439492  
     length 1.80902  
     axis 0 0 0   XYZ
    dof rx ry rz
    limits (-20.0 45.0)
           (-30.0 30.0)
           (-30.0 30.0)
  end
  begin
     id 17 
     name lclavicle
     direction 0.919195 0.377107 0.113449  
     length 3.17815  
     axis 0 0 0   XYZ
    dof ry rz
    limits (-20.0 10.0)
           (0.0 20.0)
  end
  begin
     id 18 
     name lhumerus
     direction 1 -4.48959e-011 2.13129e-027   
     length 4.84137   
     axis 180 -30 -90   XYZ
    dof rx ry rz
    limits (-60.0 90.0)
           (-90.0 90.0)
           (-90.0 90.0)
  end
  begin
     id 19
     name lradius
     direction 1 -4.48957e-011 -6.30627e-028   
     length 3.2452   
     axis 180 -30 -90   XYZ
    dof rx
    limits (-10.0 170.0)
  end
  begin
     id 20
     name lwrist
     direction 1 -4.4901e-011 9.13299e-027   
     length 1.6226   
     axis -6.84618e-015 90 90   XYZ
    dof ry
    limits (-180.0 0.0)
 end
  begin
     id 21 
     name lhand
     direction 1 -4.48816e-011 1.82293e-026   
     length 0.521221   
     axis -1.16502e-014 90 90   XYZ
    dof rx rz
    limits (-90.0 90.0)
           (-45.0 45.0)
  end
  begin
     id 22 
     name lfingers
     direction 1 -4.49108e-011 3.65687e-026   
     length 0.420221   
     axis -2.33008e-014 90 90   XYZ
    dof rx
    limits (0.0 90.0)
  end
  begin
     id 23
     name lthumb
     direction 0.707107 -6.34943e-011 0.707107   
     length 0.603356   
     axis -90 45 5.69224e-014   XYZ
    dof rx rz
    limits (-45.0 45.0)
           (-45.0 45.0)
  end
  begin
     id 24 
     name rclavicle
     direction -0.90847 0.38596 0.160368   
     length 3.12973  
     axis 0 0 0   XYZ 
    dof ry rz
    limits (-10.0 20.0)
           (-20.0 0.0)
  end
  begin
     id 25 
     name rhumerus
     direction -1 -4.48974e-011 4.47268e-028  
     length 4.72284   
     axis 180 30 90   XYZ
    dof rx ry rz
    limits (-90.0 60.0)
           (-90.0 90.0)
           (-90.0 90.0)
  end
  begin
     id 26 
     name rradius
     direction -1 -4.48969e-011 3.43203e-027   
     length 3.23459   
     axis 180 30 90   XYZ
    dof rx
    limits (-10.0 170.0)
  end
  begin
     id 27 
     name rwrist
     direction -1 -4.48969e-011 9.12911e-027   
     length 1.6173   
     axis -6.84618e-015 -90 -90   XYZ
    dof ry
    limits (-180.0 0.0)
  end
  begin
     id 28
     name rhand
     direction -1 -4.49194e-011 1.83006e-026   
     length 0.307416   
     axis -1.16502e-014 -90 -90   XYZ
    dof rx rz
    limits (-90.0 90.0)
           (-45.0 45.0)
  end
  begin
     id 29
     name rfingers
     direction -1 -4.48423e-011 3.63103e-026   
     length 0.247847   
     axis -2.33008e-014 -90 -90   XYZ
    dof rx
    limits (0.0 90.0)
  end
  begin
     id 30
     name rthumb
     direction -0.707107 -6.34802e-011 0.707107   
     length 0.35586   
     axis -90 -45 -5.69224e-014   XYZ
    dof rx rz
    limits (-45.0 45.0)
           (-45.0 45.0)
  end
:hierarchy
  begin
    root lhipjoint rhipjoint lowerback
    lhipjoint lfemur
    lfemur ltibia
    ltibia lfoot
    lfoot ltoes
    rhipjoint rfemur
    rfemur rtibia
    rtibia rfoot
    rfoot rtoes
    lowerback upperback
    upperback thorax
    thorax lowerneck lclavicle rclavicle
    lowerneck upperneck
    upperneck head
    lclavicle lhumerus
    lhumerus lradius
    lradius lwrist
    lwrist lhand lthumb
    lhand lfingers
    rclavicle rhumerus
    rhumerus rradius
    rradius rwrist
    rwrist rhand rthumb
    rhand rfingers
  end

#!OML:ASF H:\Terrain\Patient Classification 1\Animal1\Tuesday\Animal1.ASF
:FULLY-SPECIFIED
:DEGREES
565
root 12.738 15.8911 -10.6736 20.0086 -18.6751 -8.57415
lowerback 19.1561 -0.593937 -10.46
upperback 11.7271 -2.56288 -5.24488
thorax 2.30348 -1.71838 0.680452
lowerneck 7.66024 -18.7418 -9.76185
upperneck -24.7221 -24.165 22.6769
head -4.43737 -13.4706 9.35355
rclavicle 5.08889e-014 9.54166e-015
rhumerus 19.5594 40.207 -83.2011
rradius 40.1882
rwrist -3.89759
rhand -19.7166 30.3875
rfingers 7.12502
rthumb 6.61342 0.510786
lclavicle 5.08889e-014 9.54166e-015
lhumerus 13.1844 -14.0775 58.6048
lradius 52.8505
lwrist -28.3367
lhand 12.3177 37.1027
lfingers 7.12502
lthumb 37.3212 63.0834
rfemur -43.4067 14.8393 15.4105
rtibia 29.1981
rfoot -0.783865 -9.35941
rtoes -25.9385
lfemur -42.0921 10.1295 -12.0992
ltibia 51.7794
lfoot -22.0721 21.8205
ltoes -2.03598
566
root 12.735 15.8932 -10.6719 20.0139 -18.8451 -8.65905
lowerback 19.5894 -0.63294 -10.1883
upperback 11.4874 -2.66045 -5.45994
thorax 1.79182 -1.71919 0.343663
lowerneck 7.54359 -18.7027 -9.63821
upperneck -24.3815 -24.1049 22.6111
head -4.35042 -13.4341 9.27804
rclavicle 5.40694e-014 2.54444e-014
rhumerus 19.0144 40.2189 -84.1112
rradius 40.0034
rwrist -3.72381
rhand -18.9636 30.0375
rfingers 7.12502
rthumb 7.34028 0.184868
lclavicle 5.40694e-014 2.54444e-014
lhumerus 12.8452 -14.3482 58.2264
lradius 52.8046
lwrist -28.3612
lhand 11.7571 37.2806
lfingers 7.12502
lthumb 36.7909 63.3988
rfemur -43.4079 14.9779 15.4771
rtibia 29.2327
rfoot -0.943093 -9.36051
rtoes -25.7856
lfemur -42.002 10.3222 -12.0419
ltibia 51.7571
lfoot -22.0556 21.822
ltoes -2.0449
567
root 12.7314 15.8902 -10.6711 19.948 -19.0744 -8.44508
lowerback 19.3991 -0.576994 -10.3702
upperback 11.5741 -2.58613 -5.55466
thorax 1.9887 -1.69865 0.318971
lowerneck 7.77715 -18.7074 -9.72664
upperneck -24.646 -24.0971 22.8355
head -4.42308 -13.4601 9.40527
rclavicle 9.85972e-014 3.81667e-014
rhumerus 18.9977 40.0749 -84.3797
rradius 39.8402
rwrist -3.58304
rhand -18.3581 30.042
rfingers 7.12502
rthumb 7.92469 0.210516
lclavicle 9.85972e-014 3.81667e-014
lhumerus 13.5728 -13.8243 58.5622
lradius 51.3243
lwrist -29.1348
lhand 11.2203 36.5324
lfingers 7.12502
lthumb 36.2828 62.7789
rfemur -43.457 15.0268 15.2377
rtibia 29.2279
rfoot -0.896326 -9.24244
rtoes -26.0568
lfemur -41.9364 10.3357 -12.2799
ltibia 51.6976
lfoot -21.8889 22.3075
ltoes -3.51522
568
root 12.7277 15.894 -10.6724 19.8222 -19.2811 -8.17635
lowerback 19.4594 -0.584639 -10.5993
upperback 11.5815 -2.64387 -5.71209
thorax 1.98099 -1.73318 0.285778
lowerneck 7.95752 -18.6854 -9.80699
upperneck -24.8206 -24.0532 23.0536
head -4.46725 -13.4655 9.51724
rclavicle 9.54166e-015 -1.74931e-014
rhumerus 18.8258 40.0883 -84.8926
rradius 39.7626
rwrist -3.50487
rhand -18.5468 30.4117
rfingers 7.12502
rthumb 7.74263 0.573458
lclavicle 9.54166e-015 -1.74931e-014
lhumerus 13.841 -13.3022 58.6897
lradius 50.5576
lwrist -29.7438
lhand 11.175 36.3269
lfingers 7.12502
lthumb 36.2399 62.5842
rfemur -43.4428 15.0145 14.9808
rtibia 29.2025
rfoot -0.887784 -9.10268
rtoes -25.9617
lfemur -41.8214 10.3503 -12.5791
ltibia 51.6287
lfoot -21.6567 22.7689
ltoes -5.5547
569
root 12.722 15.9025 -10.6748 19.756 -19.44 -8.19888
lowerback 19.4375 -0.414976 -11.2925
upperback 11.6171 -2.51912 -5.24009
thorax 2.0984 -1.73029 1.14458
lowerneck 8.08251 -18.6849 -9.86768
upperneck -25.2693 -24.1163 22.6405
head -4.67373 -13.4509 9.47411
rclavicle 8.90555e-014 -3.18055e-015
rhumerus 18.8967 40.5773 -84.2946
rradius 39.8834
rwrist -3.55038
rhand -19.0524 30.4472
rfingers 7.12502
rthumb 7.2546 0.591597
lclavicle 8.90555e-014 -3.18055e-015
lhumerus 13.6399 -12.5793 59.6045
lradius 50.3739
lwrist -30.4947
lhand 11.4765 36.3477
lfingers 7.12502
lthumb 36.5254 62.5334
rfemur -43.3489 15.0925 15.0357
rtibia 29.1427
rfoot -0.943563 -9.01869
rtoes -25.5909
lfemur -41.6358 10.4883 -12.5596
ltibia 51.6251
lfoot -21.8927 22.425
ltoes -4.04537
570
root 12.7163 15.9049 -10.6771 19.8161 -19.6293 -8.34505
lowerback 19.6744 -0.498441 -11.0104
upperback 11.4605 -2.63999 -5.49114
thorax 1.7793 -1.74924 0.757332
lowerneck 7.91977 -18.7119 -9.26274
upperneck -25.1009 -24.1392 22.1757
head -4.74798 -13.4477 9.25411
rclavicle -3.18055e-015 6.20208e-014
rhumerus 18.4714 40.6473 -85.2527
rradius 39.8523
rwrist -3.26258
rhand -19.0963 30.1511
rfingers 7.12502
rthumb 7.21219 0.29404
lclavicle -3.18055e-015 6.20208e-014
lhumerus 13.2952 -12.6481 59.1512
lradius 50.2865
lwrist -30.743
lhand 11.4891 36.3634
lfingers 7.12502
lthumb 36.5373 62.5461
rfemur -43.3244 15.124 15.2361
rtibia 29.0207
rfoot -1.04877 -8.82722
rtoes -25.1175
lfemur -41.5758 10.6573 -12.4169
ltibia 51.6834
lfoot -22.0382 22.13
ltoes -2.51203
571
root 12.7123 15.9034 -10.678 19.9025 -19.8009 -8.49412
lowerback 19.938 -0.533886 -10.7311
upperback 11.2741 -2.70425 -5.66769
thorax 1.41202 -1.74172 0.444478
lowerneck 7.83562 -18.7583 -8.87891
upperneck -24.9451 -24.1924 21.9099
head -4.77253 -13.4675 9.11686
rclavicle -4.13472e-014 2.22639e-014
rhumerus 18.0851 40.7192 -86.0144
rradius 39.7415
rwrist -3.19229
rhand -19.3513 29.8882
rfingers 7.12502
rthumb 6.96605 0.0228372
lclavicle -4.13472e-014 2.22639e-014
lhumerus 13.055 -12.9842 58.7266
lradius 50.1337
lwrist -30.7201
lhand 11.3793 36.4125
lfingers 7.12502
lthumb 36.4333 62.6214
rfemur -43.3141 15.0925 15.4553
rtibia 28.8989
rfoot -1.22358 -8.6381
rtoes -24.9991
lfemur -41.6099 10.8117 -12.2713
ltibia 51.7851
lfoot -21.9842 22.1589
ltoes -2.93282
